<?xml version="1.0" encoding="UTF-8"?>
<svg version="1.1" xmlns="http://www.w3.org/2000/svg" width="100" height="100">
<path d="M0 0 C0.64324219 0.350625 1.28648438 0.70125 1.94921875 1.0625 C7.09252599 4.27567242 10.07007011 8.77939764 13 14 C13.34289062 14.59296875 13.68578125 15.1859375 14.0390625 15.796875 C17.52212354 23.15362074 17.0615097 33.18529528 15.34375 40.9765625 C11.96860276 50.3746018 4.62474209 57.9601238 -4.3125 62.25 C-12.72876224 65.42025125 -23.12986651 65.46669115 -31.5625 62.3125 C-33.06479531 61.58777463 -34.54717643 60.81940328 -36 60 C-36.96486328 59.4740625 -36.96486328 59.4740625 -37.94921875 58.9375 C-43.09252599 55.72432758 -46.07007011 51.22060236 -49 46 C-49.34289062 45.40703125 -49.68578125 44.8140625 -50.0390625 44.203125 C-53.50668093 36.87899635 -53.13907128 26.72163418 -51.2734375 18.98828125 C-50.34436871 16.52209457 -49.29375631 14.29386398 -48 12 C-47.649375 11.35675781 -47.29875 10.71351562 -46.9375 10.05078125 C-43.72432758 4.90747401 -39.22060236 1.92992989 -34 -1 C-33.11054687 -1.51433594 -33.11054687 -1.51433594 -32.203125 -2.0390625 C-22.517475 -6.62474635 -9.06835379 -5.11461884 0 0 Z M-25 1 C-25 1.33 -25 1.66 -25 2 C-20.38 2 -15.76 2 -11 2 C-11 1.67 -11 1.34 -11 1 C-15.62 1 -20.24 1 -25 1 Z M-28.25 9 C-29.30960938 9.556875 -29.30960938 9.556875 -30.390625 10.125 C-31.18726563 10.558125 -31.18726563 10.558125 -32 11 C-30.79618552 13.49361571 -29.54571278 15.68143083 -28 18 C-28.99 18.66 -29.98 19.32 -31 20 C-32.32 18.68 -33.64 17.36 -35 16 C-38.34855923 16.72631399 -38.34855923 16.72631399 -39.6875 20.3125 C-41.22354978 23.97571557 -41.22354978 23.97571557 -41 28 C-38.69 28 -36.38 28 -34 28 C-34 29.32 -34 30.64 -34 32 C-36.31 32 -38.62 32 -41 32 C-40.5317879 36.77576339 -39.75668002 40.04476345 -37 44 C-34.50638429 42.79618552 -32.31856917 41.54571278 -30 40 C-29.34 40.99 -28.68 41.98 -28 43 C-29.32 44.32 -30.64 45.64 -32 47 C-31.27368601 50.34855923 -31.27368601 50.34855923 -27.6875 51.6875 C-24.02428443 53.22354978 -24.02428443 53.22354978 -20 53 C-20 50.69 -20 48.38 -20 46 C-18.68 46 -17.36 46 -16 46 C-16 48.31 -16 50.62 -16 53 C-11.22423661 52.5317879 -7.95523655 51.75668002 -4 49 C-5.20381448 46.50638429 -6.45428722 44.31856917 -8 42 C-7.01 41.34 -6.02 40.68 -5 40 C-3.68 41.32 -2.36 42.64 -1 44 C2.34855923 43.27368601 2.34855923 43.27368601 3.6875 39.6875 C5.22354978 36.02428443 5.22354978 36.02428443 5 32 C2.69 32 0.38 32 -2 32 C-2 30.68 -2 29.36 -2 28 C0.31 28 2.62 28 5 28 C4.5317879 23.22423661 3.75668002 19.95523655 1 16 C-1.49361571 17.20381448 -3.68143083 18.45428722 -6 20 C-6.66 19.01 -7.32 18.02 -8 17 C-6.68 15.68 -5.36 14.36 -4 13 C-4.72631399 9.65144077 -4.72631399 9.65144077 -8.3125 8.3125 C-11.97571557 6.77645022 -11.97571557 6.77645022 -16 7 C-16 9.31 -16 11.62 -16 14 C-17.32 14 -18.64 14 -20 14 C-20 11.69 -20 9.38 -20 7 C-23.86790003 7 -25.01319413 7.27370354 -28.25 9 Z M-42 12 C-41 14 -41 14 -41 14 Z M5 12 C6 14 6 14 6 14 Z M-44 15 C-43 17 -43 17 -43 17 Z M7 15 C8 17 8 17 8 17 Z M-45 17 C-44 19 -44 19 -44 19 Z M8 17 C9 19 9 19 9 19 Z M-46 20 C-45 22 -45 22 -45 22 Z M9 20 C10 22 10 22 10 22 Z M-47 23 C-47 27.62 -47 32.24 -47 37 C-46.67 37 -46.34 37 -46 37 C-46 32.38 -46 27.76 -46 23 C-46.33 23 -46.66 23 -47 23 Z M10 23 C10 27.62 10 32.24 10 37 C10.33 37 10.66 37 11 37 C11 32.38 11 27.76 11 23 C10.67 23 10.34 23 10 23 Z M-46 38 C-45 40 -45 40 -45 40 Z M9 38 C10 40 10 40 10 40 Z M-45 41 C-44 43 -44 43 -44 43 Z M8 41 C9 43 9 43 9 43 Z M-44 43 C-43 45 -43 45 -43 45 Z M7 43 C8 45 8 45 8 45 Z M-42 46 C-41 48 -41 48 -41 48 Z M5 46 C6 48 6 48 6 48 Z M-25 58 C-25 58.33 -25 58.66 -25 59 C-20.38 59 -15.76 59 -11 59 C-11 58.67 -11 58.34 -11 58 C-15.62 58 -20.24 58 -25 58 Z " fill="#00D0FF" transform="translate(68,20)"/>
<path d="M0 0 C3.41815988 3.01602343 5.76612309 5.64561314 6.51171875 10.27734375 C6.75911612 15.95042133 6.05233098 19.5230927 2.125 23.875 C-1.71282566 27.26131676 -5.50871494 27.38449328 -10.4375 27.23046875 C-14.86366555 26.58498627 -17.55953285 24.3137922 -20.5 21.09765625 C-23.17840329 16.7680782 -22.67838111 11.75904704 -21.875 6.875 C-17.37640955 -1.4714414 -8.62932 -3.37669043 0 0 Z M-16.875 8.875 C-17.57347125 11.7146864 -17.57347125 14.0353136 -16.875 16.875 C-14.88578114 19.8588283 -13.48997432 21.47776841 -9.9375 22.3515625 C-6.01436508 22.63390933 -4.20387629 22.09425086 -0.875 19.875 C1.34425086 16.54612371 1.88390933 14.73563492 1.6015625 10.8125 C0.72776841 7.26002568 -0.8911717 5.86421886 -3.875 3.875 C-9.69163203 2.44429615 -13.48314906 3.78722359 -16.875 8.875 Z " fill="#00D1FF" transform="translate(57.875,37.125)"/>
<path d="M0 0 C1.33333333 0.66666667 2.66666667 1.33333333 4 2 C5.5778125 2.7734375 5.5778125 2.7734375 7.1875 3.5625 C10 5 10 5 11 6 C11.1875 8.4375 11.1875 8.4375 11 11 C9 13 9 13 6.5625 13.4375 C4 13 4 13 2.375 10.75 C1.92125 9.8425 1.4675 8.935 1 8 C0.01755155 6.65368175 -0.97676564 5.31558703 -2 4 C-1.34 2.68 -0.68 1.36 0 0 Z " fill="#00D0FF" transform="translate(76,74)"/>
<path d="M0 0 C1.32 0.66 2.64 1.32 4 2 C3.33333333 3.33333333 2.66666667 4.66666667 2 6 C1.484375 7.051875 0.96875 8.10375 0.4375 9.1875 C-1 12 -1 12 -2 13 C-4.4375 13.1875 -4.4375 13.1875 -7 13 C-9 11 -9 11 -9.4375 8.5625 C-9 6 -9 6 -6.75 4.375 C-5.38875 3.694375 -5.38875 3.694375 -4 3 C-2.65368175 2.01755155 -1.31558703 1.02323436 0 0 Z " fill="#00D0FF" transform="translate(22,74)"/>
<path d="M0 0 C2.5625 0.1875 2.5625 0.1875 4.5625 2.1875 C5 4.625 5 4.625 4.5625 7.1875 C2.3125 8.8125 2.3125 8.8125 -0.4375 10.1875 C-1.78381825 11.16994845 -3.12191297 12.16426564 -4.4375 13.1875 C-5.7575 12.5275 -7.0775 11.8675 -8.4375 11.1875 C-7.77083333 9.85416667 -7.10416667 8.52083333 -6.4375 7.1875 C-5.6640625 5.6096875 -5.6640625 5.6096875 -4.875 4 C-2.9463968 0.22664591 -2.9463968 0.22664591 0 0 Z " fill="#00D0FF" transform="translate(82.4375,12.8125)"/>
<path d="M0 0 C2.5625 0.4375 2.5625 0.4375 4.1875 2.6875 C4.64125 3.595 5.095 4.5025 5.5625 5.4375 C6.54494845 6.78381825 7.53926564 8.12191297 8.5625 9.4375 C7.9025 10.7575 7.2425 12.0775 6.5625 13.4375 C5.22916667 12.77083333 3.89583333 12.10416667 2.5625 11.4375 C0.9846875 10.6640625 0.9846875 10.6640625 -0.625 9.875 C-3.4375 8.4375 -3.4375 8.4375 -4.4375 7.4375 C-4.625 5 -4.625 5 -4.4375 2.4375 C-2.4375 0.4375 -2.4375 0.4375 0 0 Z " fill="#00D0FF" transform="translate(17.4375,12.5625)"/>
<path d="M0 0 C1.32 0 2.64 0 4 0 C5.44209192 4.50653726 6.34223148 8.20875922 6 13 C5 14 5 14 2 14.125 C-1 14 -1 14 -2 13 C-2.34223148 8.20875922 -1.44209192 4.50653726 0 0 Z " fill="#00D0FF" transform="translate(48,86)"/>
<path d="M0 0 C1 1 1 1 1.125 4 C1 7 1 7 0 8 C-4.79124078 8.34223148 -8.49346274 7.44209192 -13 6 C-13 4.68 -13 3.36 -13 2 C-8.49346274 0.55790808 -4.79124078 -0.34223148 0 0 Z " fill="#00D0FF" transform="translate(99,46)"/>
<path d="M0 0 C3.79336648 0.21074258 6.76785416 1.03321333 10.375 2.1875 C10.375 3.5075 10.375 4.8275 10.375 6.1875 C5.86846274 7.62959192 2.16624078 8.52973148 -2.625 8.1875 C-3.625 7.1875 -3.625 7.1875 -3.75 4.1875 C-3.58619403 0.25615672 -3.58619403 0.25615672 0 0 Z " fill="#00D0FF" transform="translate(3.625,45.8125)"/>
<path d="M0 0 C3 0.125 3 0.125 4 1.125 C4.34223148 5.91624078 3.44209192 9.61846274 2 14.125 C0.68 14.125 -0.64 14.125 -2 14.125 C-3.44209192 9.61846274 -4.34223148 5.91624078 -4 1.125 C-3 0.125 -3 0.125 0 0 Z " fill="#00D0FF" transform="translate(50,-0.125)"/>
</svg>
